/* XPM */
static char *bXVk[] = {
/* columns rows colors chars-per-pixel */
"64 64 148 2 ",
"   c #160F06",
".  c #171007",
"X  c #1C1307",
"o  c #1C1309",
"O  c #22170A",
"+  c #25190C",
"@  c #2A1D0C",
"#  c #261B10",
"$  c #2A1E10",
"%  c #2F210F",
"&  c #33220E",
"*  c #3A260E",
"=  c #3E280E",
"-  c #2D2011",
";  c #342412",
":  c #3A2711",
">  c #372817",
",  c #3C2A14",
"<  c #3B2B19",
"1  c #452C0F",
"2  c #4A2E0F",
"3  c #4D310F",
"4  c #52330E",
"5  c #432D13",
"6  c #492F10",
"7  c #422E18",
"8  c #453017",
"9  c #4C3214",
"0  c #45311A",
"q  c #4B351A",
"w  c #4F381E",
"e  c #533513",
"r  c #583610",
"t  c #563916",
"y  c #5B3B14",
"u  c #503719",
"i  c #543A1C",
"p  c #5B3D1B",
"a  c #623E14",
"s  c #603F19",
"d  c #4B3720",
"f  c #4E3921",
"g  c #543C21",
"h  c #593F21",
"j  c #5E411E",
"k  c #664014",
"l  c #6C4416",
"z  c #64431C",
"x  c #6A461C",
"c  c #6D481D",
"v  c #704717",
"b  c #794C17",
"n  c #734B1D",
"m  c #7A4E1C",
"M  c #7C511E",
"N  c #5C4223",
"B  c #644522",
"V  c #694720",
"C  c #664825",
"Z  c #6C4A23",
"A  c #624728",
"S  c #654929",
"D  c #6B4D2A",
"F  c #734E23",
"G  c #784F21",
"H  c #714F28",
"J  c #6F512D",
"K  c #765125",
"L  c #7B5324",
"P  c #74522B",
"I  c #7B562A",
"U  c #7E592D",
"Y  c #745430",
"T  c #7C5931",
"R  c #82541D",
"E  c #88571D",
"W  c #8F5B1C",
"Q  c #905C1E",
"!  c #825623",
"~  c #855925",
"^  c #8B5B23",
"/  c #805729",
"(  c #835B2B",
")  c #8A5E2B",
"_  c #915E24",
"`  c #835E32",
"'  c #895F30",
"]  c #87602F",
"[  c #8D612D",
"{  c #936126",
"}  c #93642D",
"|  c #9A672C",
" . c #9B692E",
".. c #866135",
"X. c #866137",
"o. c #876337",
"O. c #886030",
"+. c #886132",
"@. c #8C6230",
"#. c #8E6432",
"$. c #896236",
"%. c #8C6334",
"&. c #8B6436",
"*. c #8C6434",
"=. c #856138",
"-. c #88633A",
";. c #8B653A",
":. c #8E6739",
">. c #8C673A",
",. c #916532",
"<. c #906632",
"1. c #926632",
"2. c #906737",
"3. c #946835",
"4. c #956935",
"5. c #966A35",
"6. c #956B37",
"7. c #9A6A33",
"8. c #9C6B31",
"9. c #916839",
"0. c #936A3B",
"q. c #966C39",
"w. c #90693D",
"e. c #916A3D",
"r. c #926A3C",
"t. c #956D3E",
"y. c #9A6D3A",
"u. c #9A6E3B",
"i. c #9D713D",
"p. c #9F733E",
"a. c #A36D2E",
"s. c #A16E31",
"d. c #A16E33",
"f. c #A47135",
"g. c #AB7433",
"h. c #A3743C",
"j. c #A87438",
"k. c #AC7839",
"l. c #B17733",
"z. c #976E40",
"x. c #9C7241",
"c. c #9E7443",
"v. c #A37540",
"b. c #A37641",
"n. c #A77943",
"m. c #A97A43",
"M. c #B48146",
"N. c #BE894C",
/* pixels */
"g J ` -.T D D D I T I P D B B i : @ @ 5 s L ^ ~ ^ R m R y 4 4 r y a a a l a l b ^ ^ z 5 5 j V j w 8 i Z I J C X.i.h.o.T J > - > ",
"Y w.z.z.o.` T o.$.` H P C B 8 ; & : 9 z L ^ ^ ^ ! M R y 2 2 4 r a l R R E b b R ^ M 8 & * t z K F Z I &.#.P P X.:.X.D d > # - 0 ",
"w.c.z.>.:.$.$.u.u.) U +.) K i 5 6 p c K n c n m v k 2 & & 1 r r a b W W R l v v x 1 O . % j U }  .[ [ #.I P P *.:.U N f > > 0 J ",
"t.z.;.;.X.` 9.u.3.` ` 3.2.D u 9 z K K 9 , 9 y e 1 & @ & 1 4 y y a b R v y e y y 1 * X + = c {  .7.[ I K U U +.q.4.P N N N N N z.",
"w.;.=.o.` ` ` 2.&.U D ( H 8 q z L ( z & & 6 y p e 1 1 2 r y y l a k r 3 1 1 2 9 3 9 = 5 y L  . .( K K U 1.1.q.q.T N S J J Y T z.",
":.T ` ;.` T $.2.&.D p q u i V / | } c * & 5 x m z e u y e r r e 6 6 e 6 2 2 r a c x y p x / [ } U Z U %.7.3.T I N q S T Y T T z.",
"w.$.$.&.T ` &.u.3.B - 7 p P [ f.f.| s & : t m ! a e y r 6 1 1 6 5 r y s l a v L ! M t j K n ~ ( K Z P 1.3.P i w w N J X.T Y T -.",
"m.i.2.$.` Y h.h.X.q 8 p D [ f.g.s.F 9 % & p M M x a z r e 9 9 y c m R M R ^ _ { ^ x k M ^ / ~ / c x L I K 0 0 i w N T T I Y T z.",
"h.i.&.%.I *.i.( B g N Z Z P ] ~ z t : + & p L M m v v z s s x M ^ _ _ ^ _ _ _ ! m c L { | K m z j j B B w ; 8 w C S T J D U >.n.",
"T ` I J X.( ` N q N B i 8 q z z 5 9 ; + , z ^ _ ! n z x n m M ^ _ _ _ ^ ^ ^ m y z m } a.) 9 p B F C j j i 8 j B P P I I P U 6.i.",
"j w q N w 0 8 7 8 p 0 5 0 x P F F p & & y ~ | { m 5 : e n G m / ! G ! ~ ~ n y p x L { } 9 & 9 C U n z B B B K I I U ( I P U +.U ",
"N ; , 0 w , , ; 8 p N C K ( [ ~ H p 5 p L a.g.^ 9 + * e n L G n n G n m n z s z M ^ [ m , , 9 Z K p N P ( ( X.] U U I P U U T P ",
"B 8 8 g N 5 q 8 z H / #.f.j.[ Z p 9 t H | l.) s @ O * j L L n c F F G G c z x F U ^ ^ x q 8 9 z Z Z P [ [ K K Z j j B P U ] ] U ",
"C p B P / H p N P } u.f.k.3.p 5 5 q V ) g.s.z : X + 8 m ~ ! Z Z n F Z n c z s z x K Z F j 9 j c L L ( ( c j j i w p Z I ] ] ] U ",
"P P / 1.7.Z j Z ) 8.1.f.} P > ; : i L } | z : o X : z ~ ) G c H F ! G F F p : & & u j x z i j K L L ) I w 8 t j z P U ~ ] I L I ",
"K ~ [ } K 9 u Z ) 7.} 4.[ z ; + 5 V )  ./ u O o @ p ~ 1./ F z H L / / H p : o O 5 j n Z i * q j j K U z 9 w j P ~ [ } [ L K P F ",
"L / ( p , & u Z [ } [ [ / 9 + + q / s.1.x > + % e / 8. .L D Z H ) [ I B 5 O   @ u F I V q 5 9 i j Z I j t N K ( }  .} ( I F Z K ",
"L L F 9 ; : p L ) ~ L L p @ o - z } f.I 5 O + 6 H 7.s.1.F L L ( ( L i , @   O , F ) H V z B B V Z L K 9 j V I ^ [  .} L c V F Z ",
"x K F p @ 9 z F L K V z > X O , P 1.( 5 o o - p I [ ) ( ) ' ( ( Z ; + o O + 5 B / ) H x H I K H K ^ L z B x m K ~ ^ ( Z z Z Z F ",
"K ~ ! z 5 p z p t 9 8 , @ + : t L [ z % > < p Z ( L U ( 1.) C ; o   X @ , i D / ` ~ I P ~ ) K V U ] ( Z z z V F L F x x x z n c ",
"m ! ^ z * 9 9 5 9 , * & & , t B H L B p C K ( ( P H I U P i > @ X o @ 0 Z ( ' ( ( +.) K I K H K ^ ] ^ F x x x M n x z z z Z x F ",
"F K c 9 @ & * 9 9 t u t p z j p j Z P L 1.f.u.( i C P ) D q 7 > > > q D ` 3.+.H I [ 2.I V Z L K ~ U ( K z z z z x z z x F m F n ",
"x n x 9 O & 5 t z c m K F c 9 q z H ( 1.f.h.( B 7 h P ( I D C B g N N P ' %.K C H ` 2.B i C H Z c K K F j t y z z z l n m x m c ",
"x z k 9 & = 9 c ! { { ^ F z 5 p x / ) 1.1.3.U > ; i P ` ] &.$.P Z 0 i Z ' %.` h i I ( i 5 q s h p z c c p 5 9 t z l c c x x z p ",
"y x x y 1 1 t M { | { c s p p Z L ( / [ 1.#.p - 7 B ` &.u.h.h.T g 0 N T u.u.S 0 0 C C 5 ; q C V i p x z y 9 9 t z n c v j t e t ",
"y x x r * = k ! { { z t q t z L U / / [ #.( , - w J &.q.u.n.>.N < q T b.M.T q $ , g i q g Z ~ K p z V c z 9 u y v n v j y r 9 3 ",
"e a e & * 9 x ^ { ^ x j e p Z L L K ( 7.X.j : > g T &.i.b.x.D < < S x.N.w.q $ ; 5 B H P I [ 7.) B z m K p t j k x c y 4 e 3 = = ",
"9 e = 1 e k M E ~ ~ c y u 9 c L I I [ 1.I q - < g I t.b.e.;.J < 0 Y m.m.N > ; 7 N ` ] 3.8.f.7.I Z Z ! L z z y y k 9 1 1 4 4 * @ ",
"4 4 4 y l v c k k z u 5 5 e F / / I U Z B 8 $ ; i T p.b.;.o.g d g T z.Y f 7 0 A X.i.h.h.u.1.( L P K F c z z x t 9 1 * 4 y y 1 1 ",
"4 a a l v k 3 * * 9 2 = 5 p / [ L i , > , - ; ; N =.i.c.w.o.S d g S D S N g h T 6.h.7.3.[ / L U L z 9 9 9 p k 8 1 6 2 a k y 2 4 ",
"y a a a 4 = * * 9 p p 9 t Z / L q . o + < 0 < g D 9.n.i.o.` N d < d A D A N S P I ` 6.) U I ( ] ( j ; & 6 p p t t r a l v a 4 a ",
"y a r r r 3 3 t l M L z p F L q : + + 8 N Z C P 9.m.n.;.;.N > - < f D Y D S S S D U ` X.U / I L V , @ & 9 z c m n m m b b a 4 a ",
"4 y k k l y l m ^ { L t u j x i 9 5 w Z U P D +.c.n.;.Y S - # > f Y T -.T J D D I T P Z C C B u @ O @ : z R ^ ^ ~ ^ E E a r 4 y ",
"a l b E R m M ! ~ M 1 % * t j K P P U #.#.H J ] :.=.S d > # # d J z.z.z.-.T T =.%.` P P C B 0 ; ; : 9 z L ^ ^ ^ R M E y 2 2 4 r ",
"k b W Q M l n v x 1 + X - p ~ } } } [ [ I P J &.0.T N d > > 0 J z.z.z.-.>.$.>.6.u.+.U [ ( P t 5 6 i c G c x n m x k 2 & & 2 4 a ",
"l b R v y 4 y r 1 * X + 5 x [ s. .] I I I U +.6.0.P N N N N D o.z.z.z.=.$.` >.i.q.U ` 3.2.Z u q B G L 6 , 9 p e 1 & @ & 1 4 r a ",
"k k r 3 1 1 1 9 9 9 = 1 y L  . .( K P U <.<.6.q.U N N J Y Y T t.t.e.` $.` =.` >.#.U Z ` P 0 9 B I ^ z : & 5 t z e 1 5 6 r a a k ",
"4 2 3 3 9 3 e y x c y t x U [ [ U c U [ 6.6.+.I N w J T T T =.:.>.T ` ;.` T $.*.#.J i w i i V /  .} x * & 6 x m z e e y 4 y y 4 ",
"9 r k a z l v R E M j j F n ~ ^ K Z I } 3.P N i q N J X.T J T :.t.=.-.>.` ` *.i.%.B - < p Z [ s.f.| p & : e M R k u r r 1 1 2 1 ",
"c m M M M E { { ~ l j M ^ ~ I U Z x K I K 0 < w i N U T I P X.i.m.u.9.%.U I i.h.X.q 8 p P [ f.k.s.F 9 % & p K M z a z y e 6 9 a ",
"^ { _ E _ _ _ R M x M }  .M K z j j B C i ; 8 q C Z T J D I :.n.m.u.2.*.P &.i.( C g N Z Z K [ ~ B t ; + & p L ! v n c z k k z M ",
"_ ^ _ ^ _ ^ m y z M { s.) 9 p V K C j j i 8 p C D P I P I T 3.h.$.' I P ] X.] N q j B i 5 q B j 8 6 & @ = z ^ _ ! n k z c m L ^ ",
"M L R ~ ~ n p p z M { } 9 & 8 x L c z j B B P I ( U ` I P I X.T N q q g i 7 8 0 8 p 0 8 7 z H F F p & & p ~ | { m 6 = u n M M ! ",
"n G n K v z s z M ( { K , , 9 c K j B P ( ` ] ( ( I P I U U U P B ; , 0 i > > ; 8 j j C L ) } ~ H i 5 p G a.g.^ 9 + & t n ! K c ",
"F F F m c z x F I { ( x 9 8 q z Z Z L [ [ P P Z j j B Z I X.] I B 7 q i N 5 q 5 N H ~ 1.u.j.) D p q t G  .l.^ p @ O * z K L n c ",
"n F F F x x j z x K c F z 9 j F L I I ( Z p j p w p Z I ( ] [ U Z g B L I H p N K [ u.f.k.8.i 5 5 9 V ) g.s.z : X + 9 F ^ L Z Z ",
"F L K n c p , & : 9 z x j i j K U L ] L i 8 i j B P U ( ) ( K L H K / 1.8.V p Z ) 7.} s.1.H , ; > t L }  .z : o X & z ) ^ L x F ",
"L ~ / K p , X O 5 j Z c t , q j z Z I Z 9 9 j P ^ [ } [ I K F P K / [ 2.L q i V [ 7.} 1.} z ; + 5 V )  ./ t O X @ p / } ( Z z H ",
") ) I B 5 X   @ q H L V q , q t j F L p t j K ) }  .} / U n Z K L ~ / p , & 9 F ) } } [ / 7 + + q / s.7.z , + % i / 7. .L V D L ",
"( U u 5 @ X O 5 F ) K V B z B B c L K w p x L ^ } | } / Z C F Z L L F 9 % , p L ) ~ L I p @ o @ z 1.s.L , O @ 8 K } f.} Z I I / ",
"B ; + o O + 5 B / ) H V K I L H K / L z B C F K / { U c C x c K B K K j @ 9 z K L F V z , X O , F 7.~ 7 O o % p / #.[ ( ) %.( ( ",
"o   . @ , g Z ( ( ( I K / ) I z U ) ) Z z z x K L F z x x z n Z K ^ ! j 5 y z p t 9 9 , @ + : p I ) B - > , p H / L I ( 1.' C 5 ",
"o o + 0 Z ( +.( ( ) ) K I I K K ) ] ^ Z Z z x m n x z z z n x Z F ! ~ z * 8 9 1 9 : , * * , t B F L B p B H ( ` K P I I K i ; ; ",
", < q D ( 9.( P I %.$.I V Z K K / ~ / M z z z z x z z x n n M n m K n 9 @ & * 9 9 u u u t z p p z Z K I 1.h.7.I i B P ` D q , < ",
"N N N P +.[ I B H ` 2.C i C K V Z P K n z t t z z z x n n n M x x n z e + & 5 y z c m m F Z q 9 N K ( } d.j.` B 7 h P ( I D C B ",
"C q w Z X.%.` h h K U i 5 q p j p z c Z y 8 9 y x l v c x z j y z z k 9 & = 9 c ~ _ [ ^ F p 9 p V U ) } 1.3.U , ; p P ` +.$.;.I ",
"h 0 h T u.u.S 0 7 C B 5 > q Z x i p z z y 9 9 t z n c n j t r 4 y x x y 6 5 r L { | _ F p p p Z I ~ / ] 2.$.p $ 7 A ` ;.u.n.i.+.",
"d q T b.n.` 0 $ 7 i i q i Z I L p z C c z u u p c v c y y r 9 2 t x x r * = a ! { _ x t u e z L I / ( %.1.( 0 $ q P *.3.i.h.9.P ",
"f S x.N.u.f $ ; 7 N H H L %.7.) z V M K y t y k l x r e 4 3 1 = e y e & = e x ^ _ ^ z z e p Z L L L ( 7.) N ; > g T *.u.n.u.J g ",
"f P n.n.N < ; < B ` %.4.7.d.7.U Z Z L L z z j y k e = 2 e e * & 4 e = 1 e a m E ^ ~ n p u 9 x L I I [ [ I q ; < g T t.b.9.:.J w ",
"N T z.Y d 7 d A ` u.h.h.u.1.) K Z K F x z z z y 9 1 * 9 y y 1 1 4 4 4 y l v c k z x e 5 5 t H ~ / I U Z B 7 @ ; g T x.b.;.` h f ",
"N S J A h g h T 3.h.u.7.) ( L / I x t 9 r y j 8 1 1 3 y a a 4 4 r a a l l a 9 * * 2 5 : 5 p L [ L t , > ; ; ; ; N ` x.b.t.X.S N ",
"d d N D S h S Y ( ` 3.+.U U ( ( / j % * 5 p p t y y k l v y 4 y a k k a e * * * 9 y z 2 t Z / L q X O + 7 q < i D w.b.x.-.T N d ",
"< d S Y H D S S D ( ' ` U T / ( K 6 + & 9 j x m n v b M b a 4 k k y y r 4 3 9 r x F L p p F L p > @ + > N S B S 9.m.b.>.z.J d < "
};
